<svg width="36" height="24" viewBox="0 0 36 24" fill="none" xmlns="http://www.w3.org/2000/svg">
    <path d="M34.5 10.5H1.5C0.671573 10.5 0 11.1716 0 12C0 12.8284 0.671573 13.5 1.5 13.5H34.5C35.3284 13.5 36 12.8284 36 12C36 11.1716 35.3284 10.5 34.5 10.5Z" fill="white"/>
    <path d="M34.5 0H1.5C0.671573 0 0 0.671571 0 1.5C0 2.32842 0.671573 2.99999 1.5 2.99999H34.5C35.3284 2.99999 36 2.32842 36 1.5C36 0.671571 35.3284 0 34.5 0Z" fill="white"/>
    <path d="M34.5 21H1.5C0.671573 21 0 21.6716 0 22.5C0 23.3284 0.671573 24 1.5 24H34.5C35.3284 24 36 23.3284 36 22.5C36 21.6716 35.3284 21 34.5 21Z" fill="white"/>
</svg>