<svg width="24" height="24" viewBox="0 0 24 24" fill="none" xmlns="http://www.w3.org/2000/svg">
<path fill-rule="evenodd" clip-rule="evenodd" d="M0.972355 0.88287C1.47642 0.395274 2.28031 0.408623 2.76791 0.912685L22.5101 21.3216C22.9977 21.8256 22.9843 22.6295 22.4803 23.1171C21.9762 23.6047 21.1723 23.5914 20.6847 23.0873L0.942541 2.67842C0.454945 2.17436 0.468294 1.37047 0.972355 0.88287Z" fill="#474747"/>
<path fill-rule="evenodd" clip-rule="evenodd" d="M0.88287 22.7564C0.395274 22.2524 0.408623 21.4485 0.912685 20.9609L21.3216 1.2187C21.8256 0.731101 22.6295 0.744448 23.1171 1.24851C23.6047 1.75257 23.5914 2.55647 23.0873 3.04407L2.67842 22.7862C2.17436 23.2738 1.37047 23.2605 0.88287 22.7564Z" fill="#474747"/>
</svg>
