<svg width="24" height="24" viewBox="0 0 24 24" fill="none" xmlns="http://www.w3.org/2000/svg">
<path d="M4 8.00391C4 6.74075 4.73684 6.00391 6 6.00391H18C19.2632 6.00391 20 6.74075 20 8.00391V16.0039C20 17.2671 19.2632 18.0039 18 18.0039H6C4.73684 18.0039 4 17.2671 4 16.0039V8.00391ZM2 8.00391V16.0039C2 18.2495 3.75439 20.0039 6 20.0039H18C20.2456 20.0039 22 18.2495 22 16.0039V8.00391C22 5.75829 20.2456 4.00391 18 4.00391H6C3.75439 4.00391 2 5.75829 2 8.00391ZM22 8.3197C22 7.37233 21.0351 6.82847 20.2281 7.30215L12.7895 11.425C12.2982 11.7057 11.7018 11.7057 11.2105 11.425L3.77193 7.30215C2.96491 6.82847 2 7.37233 2 8.3197V16.0039C2 18.2495 3.75439 20.0039 6 20.0039H18C20.2456 20.0039 22 18.2495 22 16.0039V8.3197ZM20 8.3197V16.0039C20 17.2671 19.2632 18.0039 18 18.0039H6C4.73684 18.0039 4 17.2671 4 16.0039V8.3197C4 8.51268 3.84211 8.84601 3.42105 9.38987L10.2281 13.1793C11.2456 13.7407 12.7544 13.7407 13.7719 13.1793L20.5789 9.38987C20.1579 8.84601 20 8.51268 20 8.3197Z" fill="white"/>
</svg>
