<svg width="32" height="32" viewBox="0 0 32 32" fill="none" xmlns="http://www.w3.org/2000/svg">
<path d="M5.33268 10.6663C5.33268 8.98213 6.31514 7.99967 7.99935 7.99967H23.9993C25.6836 7.99967 26.666 8.98213 26.666 10.6663V21.333C26.666 23.0172 25.6836 23.9997 23.9993 23.9997H7.99935C6.31514 23.9997 5.33268 23.0172 5.33268 21.333V10.6663ZM2.66602 10.6663V21.333C2.66602 24.3272 5.0052 26.6663 7.99935 26.6663H23.9993C26.9935 26.6663 29.3327 24.3272 29.3327 21.333V10.6663C29.3327 7.67219 26.9935 5.33301 23.9993 5.33301H7.99935C5.0052 5.33301 2.66602 7.67219 2.66602 10.6663ZM29.3327 11.0874C29.3327 9.82424 28.0461 9.09909 26.9701 9.73067L17.052 15.2277C16.397 15.602 15.6017 15.602 14.9467 15.2277L5.02859 9.73067C3.95257 9.09909 2.66602 9.82424 2.66602 11.0874V21.333C2.66602 24.3272 5.0052 26.6663 7.99935 26.6663H23.9993C26.9935 26.6663 29.3327 24.3272 29.3327 21.333V11.0874ZM26.666 11.0874V21.333C26.666 23.0172 25.6836 23.9997 23.9993 23.9997H7.99935C6.31514 23.9997 5.33268 23.0172 5.33268 21.333V11.0874C5.33268 11.3447 5.12216 11.7891 4.56075 12.5143L13.6368 17.5669C14.9935 18.3155 17.0052 18.3155 18.3619 17.5669L27.4379 12.5143C26.8765 11.7891 26.666 11.3447 26.666 11.0874Z" />
</svg>
