<svg width="142" height="76" viewBox="0 0 142 76" fill="none" xmlns="http://www.w3.org/2000/svg">
    <path d="M13.6389 1.15234C17.4913 1.15234 20.7273 2.30154 23.1928 4.59992C23.424 4.75315 23.424 4.98299 23.1928 5.21283L21.5748 7.12815C21.3437 7.35799 21.1125 7.35799 20.8043 7.20476C18.8011 5.44267 16.3355 4.59992 13.5618 4.59992C10.0946 4.59992 8.32252 5.51928 8.32252 7.28138C8.32252 8.66041 10.2487 9.65638 14.1782 10.1927C17.3372 10.5757 19.7257 11.2652 21.4207 12.3378C23.1158 13.4104 23.9633 15.0193 23.9633 17.2411C23.9633 19.3862 23.0387 21.0717 21.1125 22.2209C19.2634 23.3701 16.8749 23.983 14.0241 23.983C9.78644 23.983 6.31927 22.7572 3.62258 20.3056C3.39143 20.0757 3.39143 19.8459 3.62258 19.6161L5.24059 17.6241C5.47174 17.3177 5.70288 17.3177 6.01107 17.5475C8.16843 19.5394 10.8651 20.5354 14.0241 20.5354C16.0274 20.5354 17.5683 20.229 18.647 19.6161C19.7257 19.0032 20.265 18.237 20.265 17.2411C20.265 16.2451 19.7257 15.479 18.647 15.0193C17.5683 14.483 15.9503 14.0999 13.7159 13.8701C12.4061 13.7169 11.2504 13.5636 10.2487 13.2572C9.2471 13.0273 8.32252 12.6443 7.39794 12.1846C6.47336 11.7249 5.77993 11.0354 5.31764 10.2693C4.85535 9.34992 4.62421 8.35396 4.62421 7.28138C4.62421 5.44267 5.47174 3.98702 7.08975 2.83783C8.70776 1.68863 10.8651 1.15234 13.6389 1.15234Z" fill="white"/>
    <path d="M28.2025 1.46094H30.7451C31.1304 1.46094 31.2845 1.61416 31.2845 1.99723V11.7271L41.8401 1.92061C42.1483 1.61416 42.5335 1.46094 42.9958 1.46094H46.6941C46.8482 1.46094 47.0023 1.53755 47.0794 1.69078C47.1564 1.844 47.0794 1.99723 46.9253 2.15045L37.1401 11.0376L47.4646 22.9126C47.6187 23.0658 47.6187 23.219 47.5417 23.3722C47.4646 23.5255 47.3105 23.6021 47.0794 23.6021H43.9204C43.4581 23.6021 42.9958 23.4488 42.6876 23.0658L34.4434 13.4126L31.2845 15.9408V22.9892C31.2845 23.3722 31.1304 23.5255 30.7451 23.5255H28.2025C27.8173 23.5255 27.6632 23.3722 27.6632 22.9892V1.99723C27.5862 1.61416 27.8173 1.46094 28.2025 1.46094Z" fill="white"/>
    <path d="M62.1805 18.0093V22.9892C62.1805 23.3722 62.0264 23.5255 61.6412 23.5255H59.0215C58.6363 23.5255 58.4822 23.3722 58.4822 22.9892V18.0093L49.1593 1.92061C49.0823 1.844 49.0823 1.69078 49.1593 1.61416C49.2364 1.53755 49.3134 1.46094 49.3905 1.46094H52.7806C53.0118 1.46094 53.1659 1.53755 53.32 1.76739L60.1773 14.2553H60.4854L67.2657 1.76739C67.4198 1.53755 67.5739 1.46094 67.805 1.46094H71.1181C71.4263 1.46094 71.5034 1.61416 71.4263 1.92061L62.1805 18.0093Z" fill="white"/>
    <path d="M74.3529 1.46094H93.1527C93.538 1.46094 93.692 1.61416 93.692 1.99723V4.29561C93.692 4.67868 93.538 4.83191 93.1527 4.83191H85.602V22.9892C85.602 23.3722 85.4479 23.5255 85.0626 23.5255H82.443C82.0578 23.5255 81.9037 23.3722 81.9037 22.9892V4.90852H74.3529C73.9677 4.90852 73.8136 4.75529 73.8136 4.37223V2.07384C73.7365 1.61416 73.9677 1.46094 74.3529 1.46094Z" fill="white"/>
    <path d="M97.5432 1.46094H113.646C113.8 1.46094 113.877 1.53755 114.032 1.61416C114.186 1.69078 114.186 1.844 114.186 1.99723V4.29561C114.186 4.44884 114.109 4.52545 114.032 4.67868C113.877 4.75529 113.8 4.83191 113.646 4.83191H100.779V10.348H112.491C112.876 10.348 113.03 10.5013 113.03 10.8843V13.1827C113.03 13.5658 112.876 13.719 112.491 13.719H100.702V20.0779H114.032C114.417 20.0779 114.571 20.2311 114.571 20.5376V22.9892C114.571 23.3722 114.417 23.5255 114.032 23.5255H97.5432C97.158 23.5255 97.0039 23.3722 97.0039 22.9892V1.99723C97.0039 1.61416 97.158 1.46094 97.5432 1.46094Z" fill="white"/>
    <path d="M128.903 1.15234C130.829 1.15234 132.601 1.53541 134.219 2.37815C135.837 3.22089 137.224 4.37009 138.303 5.90234C138.457 6.2088 138.457 6.43863 138.226 6.59186L136.3 8.12412C135.991 8.27734 135.76 8.27734 135.529 7.97089C133.757 5.6725 131.6 4.52331 128.903 4.52331C126.669 4.52331 124.819 5.28944 123.355 6.74509C121.892 8.20073 121.198 10.1161 121.198 12.4144C121.198 14.7128 121.892 16.5515 123.355 18.0838C124.819 19.6161 126.669 20.3822 128.903 20.3822C131.6 20.3822 133.834 19.233 135.606 16.858C135.76 16.6282 135.991 16.6282 136.3 16.7814L138.226 18.3136C138.457 18.4669 138.534 18.6967 138.303 19.0032C135.991 22.1443 132.909 23.7532 128.903 23.7532C125.59 23.7532 122.893 22.6806 120.659 20.5354C118.501 18.3902 117.346 15.6322 117.346 12.3378C117.346 9.12009 118.424 6.36202 120.659 4.21686C122.893 2.22492 125.667 1.15234 128.903 1.15234Z" fill="white"/>
    <path d="M13.6389 1.15234C17.4913 1.15234 20.7273 2.30154 23.1928 4.59992C23.424 4.75315 23.424 4.98299 23.1928 5.21283L21.5748 7.12815C21.3437 7.35799 21.1125 7.35799 20.8043 7.20476C18.8011 5.44267 16.3355 4.59992 13.5618 4.59992C10.0946 4.59992 8.32252 5.51928 8.32252 7.28138C8.32252 8.66041 10.2487 9.65638 14.1782 10.1927C17.3372 10.5757 19.7257 11.2652 21.4207 12.3378C23.1158 13.4104 23.9633 15.0193 23.9633 17.2411C23.9633 19.3862 23.0387 21.0717 21.1125 22.2209C19.2634 23.3701 16.8749 23.983 14.0241 23.983C9.78644 23.983 6.31927 22.7572 3.62258 20.3056C3.39143 20.0757 3.39143 19.8459 3.62258 19.6161L5.24059 17.6241C5.47174 17.3177 5.70288 17.3177 6.01107 17.5475C8.16843 19.5394 10.8651 20.5354 14.0241 20.5354C16.0274 20.5354 17.5683 20.229 18.647 19.6161C19.7257 19.0032 20.265 18.237 20.265 17.2411C20.265 16.2451 19.7257 15.479 18.647 15.0193C17.5683 14.483 15.9503 14.0999 13.7159 13.8701C12.4061 13.7169 11.2504 13.5636 10.2487 13.2572C9.2471 13.0273 8.32252 12.6443 7.39794 12.1846C6.47336 11.7249 5.77993 11.0354 5.31764 10.2693C4.85535 9.34992 4.62421 8.35396 4.62421 7.28138C4.62421 5.44267 5.47174 3.98702 7.08975 2.83783C8.70776 1.68863 10.8651 1.15234 13.6389 1.15234Z" fill="url(#paint0_linear_315_352)"/>
    <path d="M28.2025 1.46094H30.7451C31.1304 1.46094 31.2845 1.61416 31.2845 1.99723V11.7271L41.8401 1.92061C42.1483 1.61416 42.5335 1.46094 42.9958 1.46094H46.6941C46.8482 1.46094 47.0023 1.53755 47.0794 1.69078C47.1564 1.844 47.0794 1.99723 46.9253 2.15045L37.1401 11.0376L47.4646 22.9126C47.6187 23.0658 47.6187 23.219 47.5417 23.3722C47.4646 23.5255 47.3105 23.6021 47.0794 23.6021H43.9204C43.4581 23.6021 42.9958 23.4488 42.6876 23.0658L34.4434 13.4126L31.2845 15.9408V22.9892C31.2845 23.3722 31.1304 23.5255 30.7451 23.5255H28.2025C27.8173 23.5255 27.6632 23.3722 27.6632 22.9892V1.99723C27.5862 1.61416 27.8173 1.46094 28.2025 1.46094Z" fill="url(#paint1_linear_315_352)"/>
    <path d="M62.1805 18.0093V22.9892C62.1805 23.3722 62.0264 23.5255 61.6412 23.5255H59.0215C58.6363 23.5255 58.4822 23.3722 58.4822 22.9892V18.0093L49.1593 1.92061C49.0823 1.844 49.0823 1.69078 49.1593 1.61416C49.2364 1.53755 49.3134 1.46094 49.3905 1.46094H52.7806C53.0118 1.46094 53.1659 1.53755 53.32 1.76739L60.1773 14.2553H60.4854L67.2657 1.76739C67.4198 1.53755 67.5739 1.46094 67.805 1.46094H71.1181C71.4263 1.46094 71.5034 1.61416 71.4263 1.92061L62.1805 18.0093Z" fill="url(#paint2_linear_315_352)"/>
    <path d="M74.3529 1.46094H93.1527C93.538 1.46094 93.692 1.61416 93.692 1.99723V4.29561C93.692 4.67868 93.538 4.83191 93.1527 4.83191H85.602V22.9892C85.602 23.3722 85.4479 23.5255 85.0626 23.5255H82.443C82.0578 23.5255 81.9037 23.3722 81.9037 22.9892V4.90852H74.3529C73.9677 4.90852 73.8136 4.75529 73.8136 4.37223V2.07384C73.7365 1.61416 73.9677 1.46094 74.3529 1.46094Z" fill="url(#paint3_linear_315_352)"/>
    <path d="M97.5432 1.46094H113.646C113.8 1.46094 113.877 1.53755 114.032 1.61416C114.186 1.69078 114.186 1.844 114.186 1.99723V4.29561C114.186 4.44884 114.109 4.52545 114.032 4.67868C113.877 4.75529 113.8 4.83191 113.646 4.83191H100.779V10.348H112.491C112.876 10.348 113.03 10.5013 113.03 10.8843V13.1827C113.03 13.5658 112.876 13.719 112.491 13.719H100.702V20.0779H114.032C114.417 20.0779 114.571 20.2311 114.571 20.5376V22.9892C114.571 23.3722 114.417 23.5255 114.032 23.5255H97.5432C97.158 23.5255 97.0039 23.3722 97.0039 22.9892V1.99723C97.0039 1.61416 97.158 1.46094 97.5432 1.46094Z" fill="url(#paint4_linear_315_352)"/>
    <path d="M128.903 1.15234C130.829 1.15234 132.601 1.53541 134.219 2.37815C135.837 3.22089 137.224 4.37009 138.303 5.90234C138.457 6.2088 138.457 6.43863 138.226 6.59186L136.3 8.12412C135.991 8.27734 135.76 8.27734 135.529 7.97089C133.757 5.6725 131.6 4.52331 128.903 4.52331C126.669 4.52331 124.819 5.28944 123.355 6.74509C121.892 8.20073 121.198 10.1161 121.198 12.4144C121.198 14.7128 121.892 16.5515 123.355 18.0838C124.819 19.6161 126.669 20.3822 128.903 20.3822C131.6 20.3822 133.834 19.233 135.606 16.858C135.76 16.6282 135.991 16.6282 136.3 16.7814L138.226 18.3136C138.457 18.4669 138.534 18.6967 138.303 19.0032C135.991 22.1443 132.909 23.7532 128.903 23.7532C125.59 23.7532 122.893 22.6806 120.659 20.5354C118.501 18.3902 117.346 15.6322 117.346 12.3378C117.346 9.12009 118.424 6.36202 120.659 4.21686C122.893 2.22492 125.667 1.15234 128.903 1.15234Z" fill="url(#paint5_linear_315_352)"/>
    <path d="M5.39393 30.6484H7.55128C7.85948 30.6484 8.01357 30.8017 8.01357 31.1081V39.2291L16.7971 31.0315C17.0282 30.8017 17.4135 30.6484 17.7987 30.6484H20.8806C21.0347 30.6484 21.1118 30.7251 21.1888 30.8017C21.2659 30.9549 21.1888 31.0315 21.1118 31.1847L12.9447 38.6162L21.5741 48.5759C21.6511 48.6525 21.7282 48.8057 21.6511 48.9589C21.5741 49.1121 21.497 49.1888 21.2659 49.1888H18.4921C18.1069 49.1888 17.7217 49.0355 17.4905 48.7291L10.6332 40.6081L8.01357 42.6767V48.5759C8.01357 48.8823 7.85948 49.0355 7.55128 49.0355H5.39393C5.08574 49.0355 4.93164 48.8823 4.93164 48.5759V31.1081C4.93164 30.8017 5.08574 30.6484 5.39393 30.6484Z" fill="white"/>
    <path d="M40.7589 49.1121H38.6016C38.3704 49.1121 38.1393 49.0355 37.9852 48.8057L31.8984 41.1444L27.3525 34.9388H27.1984L27.4296 40.4549V48.6525C27.4296 48.9589 27.2755 49.1121 26.8903 49.1121H24.7329C24.4247 49.1121 24.3477 48.9589 24.3477 48.6525V31.1081C24.3477 30.8017 24.5018 30.6484 24.8099 30.6484H26.8132C27.1984 30.6484 27.4296 30.7251 27.5837 30.9549L34.1328 39.0759L38.2163 44.6686H38.3704L38.1393 39.2291V31.1081C38.1393 30.8017 38.2934 30.6484 38.6016 30.6484H40.7589C41.0671 30.6484 41.2212 30.8017 41.2212 31.1081V48.6525C41.2212 48.9589 41.0671 49.1121 40.7589 49.1121Z" fill="white"/>
    <path d="M70.4217 30.6484H72.9643C73.2724 30.6484 73.4265 30.7251 73.5036 30.9549L77.8183 45.5113H77.9724L82.133 30.9549C82.2101 30.7251 82.3641 30.6484 82.5953 30.6484H84.9067C85.1379 30.6484 85.292 30.7251 85.369 30.9549L89.6067 45.5113H89.7608L93.9984 31.0315C94.0755 30.8017 94.2296 30.6484 94.4607 30.6484H97.0033C97.3115 30.6484 97.3886 30.8017 97.3115 31.1081L91.5329 48.7291C91.4559 49.0355 91.2247 49.1121 90.9165 49.1121H88.0657C87.7575 49.1121 87.6034 48.9589 87.5264 48.6525L83.751 35.7049H83.5969L79.8986 48.7291C79.8216 49.0355 79.6675 49.1121 79.4363 49.1121H76.5855C76.2773 49.1121 76.1232 48.9589 75.9691 48.7291L70.1135 30.9549C69.9594 30.7251 70.0364 30.6484 70.4217 30.6484Z" fill="white"/>
    <path d="M44.6107 51.9453H46.8451C47.1533 51.9453 47.3074 52.0985 47.3074 52.405V67.4977H58.4794C58.7876 67.4977 59.0188 67.651 59.0188 67.9574V69.8727C59.0188 70.1792 58.8647 70.3324 58.4794 70.3324H44.6107C44.3025 70.3324 44.1484 70.1792 44.1484 69.8727V52.4816C44.1484 52.1751 44.3025 51.9453 44.6107 51.9453Z" fill="white"/>
    <path d="M102.012 60.2985H104.169C104.477 60.2985 104.631 60.4517 104.631 60.7582V69.9517C104.631 70.2582 104.477 70.488 104.169 70.488H102.705C102.397 70.488 102.166 70.3348 102.089 70.0284L101.781 68.9558C100.317 70.1816 98.6217 70.7945 96.6955 70.7945C93.9218 70.7945 91.6873 69.8751 89.8382 68.113C87.989 66.3509 87.0645 64.0525 87.0645 61.2945C87.0645 58.613 87.989 56.3146 89.8382 54.5525C91.6873 52.7138 93.9988 51.8711 96.6955 51.8711C98.3135 51.8711 99.7774 52.2542 101.241 52.8671C102.628 53.5566 103.784 54.5526 104.631 55.7784C104.786 56.0082 104.786 56.1614 104.554 56.3913L102.859 57.6937C102.628 57.8469 102.474 57.8469 102.243 57.6937C100.779 55.7784 98.8528 54.7824 96.6184 54.7824C94.7693 54.7824 93.1513 55.3953 91.9955 56.6977C90.7628 57.9235 90.1464 59.5324 90.1464 61.4477C90.1464 63.363 90.7628 64.8953 91.9955 66.1977C93.2283 67.4235 94.7693 68.113 96.6184 68.113C98.4676 68.113 100.086 67.4235 101.395 66.0445V60.988C101.55 60.4517 101.704 60.2985 102.012 60.2985Z" fill="white"/>
    <path d="M117.576 65.8122V69.9493C117.576 70.2558 117.422 70.409 117.114 70.409H114.956C114.648 70.409 114.494 70.2558 114.494 69.9493V65.8122L106.712 52.405C106.635 52.3284 106.635 52.2518 106.712 52.0985C106.712 52.0219 106.789 51.9453 106.943 51.9453H109.794C109.948 51.9453 110.102 52.0219 110.256 52.2518L115.958 62.6711H116.266L121.891 52.2518C121.968 52.0985 122.199 51.9453 122.353 51.9453H125.127C125.435 51.9453 125.512 52.0985 125.358 52.3284L117.576 65.8122Z" fill="white"/>
    <path d="M82.7505 55.7753C80.0538 51.7148 72.1949 49.8761 67.7261 49.11C67.4179 50.4124 67.1097 51.2552 67.1097 51.3318C66.9556 51.7148 66.8786 52.1745 66.7245 52.6342C71.6556 53.4003 78.0506 55.1624 79.7456 57.7673C82.3653 61.7511 81.2866 67.1906 77.2031 69.7955C73.1965 72.4003 67.7261 71.3277 65.1065 67.2673C63.3344 64.5858 64.4901 57.3076 65.7999 52.481C65.954 51.9447 66.1081 51.485 66.2622 51.0253C66.3392 50.7189 66.5704 49.9527 66.8786 48.9568C67.9573 44.8197 69.8064 36.0092 66.9556 31.7189C63.1803 26.0495 55.4754 24.4406 49.7739 28.1947C44.0723 31.9487 42.4543 39.61 46.2296 45.2793C48.9263 49.3398 56.7853 51.1785 61.2541 51.9447C61.5623 50.6423 61.8704 49.7995 61.8704 49.7229C62.0245 49.3398 62.1016 48.8802 62.2557 48.4205C57.3246 47.6543 50.9296 45.8922 49.2345 43.2874C46.6149 39.3035 47.6936 33.864 51.7771 31.2592C55.7836 28.6543 61.2541 29.7269 63.8737 33.7874C65.6458 36.4689 64.4901 43.7471 63.1803 48.5737C63.0262 49.11 62.8721 49.5697 62.718 50.0293C62.6409 50.3358 62.4098 51.1019 62.1016 52.0979C61.0229 56.235 59.1738 65.0455 62.0245 69.3358C65.7999 75.0052 73.5047 76.614 79.2063 72.86C84.9079 69.106 86.5259 61.4447 82.7505 55.7753Z" fill="url(#paint6_linear_315_352)"/>
    <defs>
        <linearGradient id="paint0_linear_315_352" x1="39.5804" y1="-2.8945" x2="89.1985" y2="21.8811" gradientUnits="userSpaceOnUse">
            <stop stop-color="#46C0D7"/>
            <stop offset="1" stop-color="#4764AE"/>
        </linearGradient>
        <linearGradient id="paint1_linear_315_352" x1="39.582" y1="-2.89236" x2="89.2001" y2="21.8832" gradientUnits="userSpaceOnUse">
            <stop stop-color="#46C0D7"/>
            <stop offset="1" stop-color="#4764AE"/>
        </linearGradient>
        <linearGradient id="paint2_linear_315_352" x1="39.5816" y1="-2.89236" x2="89.1998" y2="21.8832" gradientUnits="userSpaceOnUse">
            <stop stop-color="#46C0D7"/>
            <stop offset="1" stop-color="#4764AE"/>
        </linearGradient>
        <linearGradient id="paint3_linear_315_352" x1="39.5804" y1="-2.89236" x2="89.1985" y2="21.8832" gradientUnits="userSpaceOnUse">
            <stop stop-color="#46C0D7"/>
            <stop offset="1" stop-color="#4764AE"/>
        </linearGradient>
        <linearGradient id="paint4_linear_315_352" x1="39.5792" y1="-2.89236" x2="89.1973" y2="21.8832" gradientUnits="userSpaceOnUse">
            <stop stop-color="#46C0D7"/>
            <stop offset="1" stop-color="#4764AE"/>
        </linearGradient>
        <linearGradient id="paint5_linear_315_352" x1="39.5803" y1="-2.8945" x2="89.1984" y2="21.8811" gradientUnits="userSpaceOnUse">
            <stop stop-color="#46C0D7"/>
            <stop offset="1" stop-color="#4764AE"/>
        </linearGradient>
        <linearGradient id="paint6_linear_315_352" x1="44.1302" y1="50.5328" x2="84.7799" y2="50.5328" gradientUnits="userSpaceOnUse">
            <stop stop-color="#46C0D7"/>
            <stop offset="1" stop-color="#4764AE"/>
        </linearGradient>
    </defs>
</svg>
