<svg width="24" height="24" viewBox="0 0 24 24" fill="none" xmlns="http://www.w3.org/2000/svg">
    <path d="M21.8938 13.3343C21.7976 13.2379 21.6769 13.1695 21.5448 13.1365C21.4127 13.1034 21.274 13.107 21.1438 13.1468C19.7137 13.5791 18.1931 13.6154 16.744 13.2517C15.295 12.888 13.9717 12.1379 12.9153 11.0815C11.8589 10.0251 11.1088 8.70185 10.7451 7.25278C10.3814 5.80372 10.4177 4.28312 10.85 2.85304C10.8902 2.72272 10.894 2.58394 10.8611 2.45161C10.8283 2.31928 10.76 2.19841 10.6636 2.10199C10.5672 2.00558 10.4463 1.93728 10.314 1.90442C10.1816 1.87157 10.0428 1.87541 9.91253 1.91554C7.93537 2.5212 6.1996 3.73503 4.95222 5.38428C3.86136 6.83259 3.19596 8.55638 3.03078 10.362C2.8656 12.1676 3.20719 13.9836 4.01717 15.6057C4.82714 17.2279 6.07341 18.5921 7.61597 19.5451C9.15852 20.498 10.9362 21.0019 12.7494 21.0002C14.8647 21.0067 16.9238 20.3191 18.6107 19.0427C20.2599 17.7953 21.4737 16.0596 22.0794 14.0824C22.1191 13.9526 22.1227 13.8144 22.0901 13.6827C22.0574 13.5509 21.9895 13.4305 21.8938 13.3343ZM17.7088 17.8446C16.1202 19.0411 14.1529 19.6235 12.169 19.4846C10.1852 19.3457 8.31822 18.4948 6.91191 17.0886C5.5056 15.6824 4.65458 13.8155 4.51551 11.8317C4.37643 9.84778 4.95867 7.88044 6.15503 6.29179C6.93447 5.26247 7.94216 4.42808 9.09878 3.85429C9.03289 4.31668 8.99969 4.78315 8.99941 5.25022C9.00214 7.83525 10.0302 10.3136 11.8581 12.1415C13.686 13.9694 16.1644 14.9975 18.7494 15.0002C19.2174 15.0001 19.6848 14.9669 20.1482 14.9008C19.5738 16.0577 18.7388 17.0654 17.7088 17.8446Z" fill="white"/>
</svg>