<svg width="24" height="24" viewBox="0 0 24 24" fill="none" xmlns="http://www.w3.org/2000/svg">
<path d="M20.6638 18.7749C20.6638 18.7749 19.5052 19.9129 19.2212 20.2466C18.7587 20.7402 18.2137 20.9733 17.4992 20.9733C17.4305 20.9733 17.3573 20.9732 17.2886 20.9687C15.9284 20.8818 14.6644 20.3517 13.7164 19.8992C11.1243 18.6469 8.84819 16.8691 6.95678 14.6159C5.3951 12.7375 4.35093 11.0008 3.6594 9.13607C3.23349 7.99806 3.07778 7.11141 3.14647 6.27504C3.19227 5.74031 3.39835 5.29699 3.77847 4.91765L5.34015 3.35916C5.56455 3.14893 5.8027 3.03467 6.03626 3.03467C6.32478 3.03467 6.55835 3.20834 6.7049 3.35459C6.70948 3.35916 6.71406 3.36373 6.71863 3.3683C6.998 3.62881 7.26362 3.89846 7.54298 4.18639C7.68495 4.33264 7.8315 4.4789 7.97805 4.62972L9.22831 5.87742C9.71376 6.36188 9.71376 6.80977 9.22831 7.29423C9.0955 7.42677 8.96727 7.5593 8.83445 7.68727C8.44976 8.08032 8.75196 7.77874 8.35353 8.13523C8.34437 8.14437 8.33521 8.14894 8.33063 8.15808C7.93677 8.55113 8.01005 8.93504 8.09248 9.19554C8.09706 9.20926 8.10164 9.22297 8.10622 9.23668C8.43138 10.0228 8.88935 10.7632 9.58546 11.6452L9.59005 11.6498C10.854 13.2037 12.1867 14.4149 13.6568 15.3427C13.8446 15.4615 14.0369 15.5575 14.2201 15.6489C14.385 15.7311 14.5407 15.8088 14.6735 15.8911C14.6918 15.9002 14.7101 15.9139 14.7285 15.9231C14.8842 16.0008 15.0307 16.0373 15.1819 16.0373C15.562 16.0373 15.8001 15.7997 15.878 15.722L16.7757 14.8261C16.9314 14.6708 17.1787 14.4834 17.4672 14.4834C17.7511 14.4834 17.9847 14.6616 18.1267 14.817C18.1312 14.8216 18.1312 14.8216 18.1358 14.8261L20.6592 17.3444C21.1309 17.8106 20.6638 18.7749 20.6638 18.7749Z" stroke="white" stroke-width="2" stroke-linecap="round" stroke-linejoin="round"/>
</svg>
