<svg width="140" height="140" viewBox="0 0 140 140" fill="none" xmlns="http://www.w3.org/2000/svg">
    <mask id="mask0_315_578" style="mask-type:luminance" maskUnits="userSpaceOnUse" x="0" y="0" width="140" height="140">
        <path d="M140 70C140 31.3401 108.66 0 70 0C31.3401 0 0 31.3401 0 70C0 108.66 31.3401 140 70 140C108.66 140 140 108.66 140 70Z" fill="white"/>
    </mask>
    <g mask="url(#mask0_315_578)">
        <path d="M140 70C140 31.3401 108.66 0 70 0C31.3401 0 0 31.3401 0 70C0 108.66 31.3401 140 70 140C108.66 140 140 108.66 140 70Z" fill="white"/>
        <path d="M70 140C108.66 140 140 108.66 140 70C140 31.3401 108.66 0 70 0C31.3401 0 0 31.3401 0 70C0 108.66 31.3401 140 70 140Z" fill="#404040"/>
        <path d="M126.934 118.23C117.246 118.23 110.078 116.414 105.43 112.781C100.82 109.148 98.5156 103.562 98.5156 96.0234L107.949 95.7891C107.949 99.1875 108.574 101.922 109.824 103.992C111.113 106.023 113.145 107.508 115.918 108.445C118.691 109.383 122.402 109.852 127.051 109.852C131.387 109.852 134.766 109.344 137.188 108.328C139.648 107.312 141.406 105.672 142.461 103.406C143.516 101.102 144.043 97.9375 144.043 93.9141C144.043 88.4062 142.148 84.2461 138.359 81.4336C134.57 78.6211 129.102 77.2148 121.953 77.2148L114.629 77.2734V67.957H121.953C128.477 67.957 133.477 66.707 136.953 64.207C140.469 61.668 142.227 57.9766 142.227 53.1328C142.227 49.7734 141.68 47.0781 140.586 45.0469C139.492 43.0156 137.754 41.5312 135.371 40.5938C132.988 39.6562 129.805 39.1875 125.82 39.1875C121.523 39.1875 118.105 39.6172 115.566 40.4766C113.027 41.3359 111.133 42.8594 109.883 45.0469C108.672 47.2344 108.066 50.3203 108.066 54.3047H98.5742C98.5742 46.1016 100.82 40.125 105.312 36.375C109.805 32.625 116.562 30.75 125.586 30.75C134.57 30.75 141.211 32.5078 145.508 36.0234C149.844 39.5 152.012 44.8711 152.012 52.1367C152.012 57.3711 150.664 61.668 147.969 65.0273C145.312 68.3867 141.211 70.9258 135.664 72.6445C141.602 73.6992 146.133 75.9844 149.258 79.5C152.422 82.9766 154.004 87.625 154.004 93.4453C154.004 101.727 151.777 107.938 147.324 112.078C142.871 116.18 136.074 118.23 126.934 118.23Z" fill="white"/>
        <path fill-rule="evenodd" clip-rule="evenodd" d="M103.582 115.145L103.573 115.137C98.044 110.78 95.5156 104.197 95.5156 96.0234V93.097L110.949 92.7136V95.7891C110.949 98.8316 111.51 100.963 112.375 102.413C113.224 103.735 114.625 104.842 116.879 105.603C119.216 106.393 122.561 106.852 127.051 106.852C131.214 106.852 134.136 106.355 136.027 105.562L136.035 105.558L136.043 105.555C137.855 104.807 139.021 103.681 139.737 102.149C140.535 100.399 141.043 97.7256 141.043 93.9141C141.043 89.1754 139.464 85.9896 136.571 83.8425C133.506 81.5673 128.776 80.2164 121.965 80.2148C121.961 80.2148 121.957 80.2148 121.953 80.2148L111.629 80.2975V64.957H121.953C128.155 64.957 132.436 63.7587 135.198 61.7737C137.832 59.8709 139.227 57.1427 139.227 53.1328C139.227 50.0591 138.72 47.9092 137.945 46.4692C137.225 45.1321 136.073 44.0938 134.273 43.3854C132.379 42.6404 129.615 42.1875 125.82 42.1875C121.678 42.1875 118.628 42.6075 116.528 43.3182C114.643 43.9563 113.359 45.0191 112.498 46.5174C111.643 48.0726 111.066 50.571 111.066 54.3047V57.3047H95.5742V54.3047C95.5742 45.5855 97.9725 38.5944 103.39 34.072C108.647 29.6839 116.223 27.75 125.586 27.75C134.857 27.75 142.32 29.5454 147.396 33.692C152.64 37.9033 155.012 44.2685 155.012 52.1367C155.012 57.8978 153.52 62.8983 150.316 66.8962C148.687 68.9539 146.641 70.699 144.224 72.1581C147.056 73.4885 149.495 75.2552 151.488 77.4937C155.259 81.6445 157.004 87.0706 157.004 93.4453C157.004 102.247 154.627 109.384 149.367 114.275L149.362 114.28L149.357 114.285C144.125 119.103 136.453 121.23 126.934 121.23C116.972 121.23 109.003 119.381 103.582 115.145ZM149.258 79.5C147.091 77.0623 144.248 75.2162 140.729 73.9617C139.173 73.407 137.485 72.9679 135.664 72.6445C137.441 72.094 139.069 71.4593 140.549 70.7405C143.69 69.2151 146.163 67.3107 147.969 65.0273C150.664 61.668 152.012 57.3711 152.012 52.1367C152.012 44.8711 149.844 39.5 145.508 36.0234C141.211 32.5078 134.57 30.75 125.586 30.75C116.562 30.75 109.805 32.625 105.312 36.375C101.387 39.6516 99.1771 44.6282 98.6816 51.3047C98.61 52.2692 98.5742 53.2692 98.5742 54.3047H108.066C108.066 50.3203 108.672 47.2344 109.883 45.0469C111.133 42.8594 113.027 41.3359 115.566 40.4766C118.105 39.6172 121.523 39.1875 125.82 39.1875C129.805 39.1875 132.988 39.6562 135.371 40.5938C137.754 41.5312 139.492 43.0156 140.586 45.0469C141.68 47.0781 142.227 49.7734 142.227 53.1328C142.227 57.9766 140.469 61.668 136.953 64.207C133.477 66.707 128.477 67.957 121.953 67.957H114.629V77.2734L121.953 77.2148C129.102 77.2148 134.57 78.6211 138.359 81.4336C142.148 84.2461 144.043 88.4062 144.043 93.9141C144.043 97.9375 143.516 101.102 142.461 103.406C141.406 105.672 139.648 107.312 137.188 108.328C134.766 109.344 131.387 109.852 127.051 109.852C122.402 109.852 118.691 109.383 115.918 108.445C113.145 107.508 111.113 106.023 109.824 103.992C108.739 102.194 108.125 99.8958 107.982 97.0965C107.96 96.6722 107.949 96.2364 107.949 95.7891L98.5156 96.0234C98.5156 96.6235 98.5302 97.2112 98.5594 97.7865C98.5806 98.2046 98.6096 98.6161 98.6462 99.0211C99.1926 105.061 101.454 109.648 105.43 112.781C110.078 116.414 117.246 118.23 126.934 118.23C136.074 118.23 142.871 116.18 147.324 112.078C151.777 107.938 154.004 101.727 154.004 93.4453C154.004 87.625 152.422 82.9766 149.258 79.5Z" fill="white"/>
        <path d="M32.8994 49V63H31.4794V51.8L25.9794 61.22H25.2794L19.7794 51.86V63H18.3594V49H19.5794L25.6594 59.38L31.6794 49H32.8994Z" fill="white"/>
        <path d="M47.5172 61.72V63H37.6172V49H47.2172V50.28H39.0972V55.26H46.3372V56.52H39.0972V61.72H47.5172Z" fill="white"/>
        <path d="M63.6621 61.72V66.14H62.2821V63H50.0621L50.0421 66.14H48.6621L48.6821 61.72H49.3821C50.3021 61.6667 50.9421 60.94 51.3021 59.54C51.6621 58.1267 51.8821 56.1267 51.9621 53.54L52.1221 49H61.5621V61.72H63.6621ZM53.2821 53.68C53.2154 55.8133 53.0487 57.5733 52.7821 58.96C52.5287 60.3333 52.0954 61.2533 51.4821 61.72H60.1021V50.28H53.4021L53.2821 53.68Z" fill="white"/>
        <path d="M66.6797 49H68.1397V60.6L77.0997 49H78.4397V63H76.9797V51.42L68.0197 63H66.6797V49Z" fill="white"/>
        <path d="M92.1254 59.26H84.3254L82.6454 63H81.1055L87.5054 49H88.9655L95.3654 63H93.8055L92.1254 59.26ZM91.5854 58.06L88.2254 50.54L84.8654 58.06H91.5854Z" fill="white"/>
        <path d="M18.3594 70H28.5994V71.26H19.8194V75.84H24.3994C26.0527 75.84 27.306 76.18 28.1594 76.86C29.026 77.54 29.4594 78.5267 29.4594 79.82C29.4594 81.1667 28.9927 82.2 28.0594 82.92C27.1394 83.64 25.8127 84 24.0794 84H18.3594V70ZM24.0594 82.82C25.3527 82.82 26.326 82.5733 26.9794 82.08C27.646 81.5867 27.9794 80.8533 27.9794 79.88C27.9794 78.92 27.6527 78.2067 26.9994 77.74C26.3594 77.26 25.3794 77.02 24.0594 77.02H19.8194V82.82H24.0594Z" fill="white"/>
        <path d="M41.813 80.26H34.013L32.333 84H30.793L37.193 70H38.653L45.053 84H43.493L41.813 80.26ZM41.273 79.06L37.913 71.54L34.5529 79.06H41.273Z" fill="white"/>
        <path d="M47.7344 70H49.1944V81.6L58.1544 70H59.4944V84H58.0344V72.42L49.0744 84H47.7344V70Z" fill="white"/>
        <path d="M75.9187 70V84H74.4587V77.54H65.6988V84H64.2188V70H65.6988V76.24H74.4587V70H75.9187Z" fill="white"/>
        <path d="M89.5445 71.28H82.0845L82.1045 84H80.6445V70H89.5445V71.28Z" fill="white"/>
        <path d="M24.2754 97.2822V98.9982H17.3984V97.6332L20.9084 94.3182C21.2811 93.9629 21.5324 93.6596 21.6624 93.4082C21.7924 93.1482 21.8574 92.8926 21.8574 92.6412C21.8574 92.2772 21.7318 91.9999 21.4804 91.8092C21.2378 91.6099 20.8781 91.5102 20.4014 91.5102C20.0028 91.5102 19.6431 91.5882 19.3224 91.7442C19.0018 91.8916 18.7331 92.1169 18.5164 92.4202L16.9824 91.4322C17.3378 90.9036 17.8274 90.4919 18.4514 90.1972C19.0754 89.8939 19.7904 89.7422 20.5964 89.7422C21.2724 89.7422 21.8618 89.8549 22.3644 90.0802C22.8758 90.2969 23.2701 90.6089 23.5474 91.0162C23.8334 91.4149 23.9764 91.8872 23.9764 92.4332C23.9764 92.9272 23.8724 93.3909 23.6644 93.8242C23.4564 94.2576 23.0534 94.7516 22.4554 95.3062L20.3624 97.2822H24.2754Z" fill="white"/>
        <path d="M32.7887 99.1542C32.0347 99.1542 31.363 98.9679 30.7737 98.5952C30.1844 98.2226 29.7207 97.6852 29.3827 96.9832C29.0534 96.2726 28.8887 95.4276 28.8887 94.4482C28.8887 93.4689 29.0534 92.6282 29.3827 91.9262C29.7207 91.2156 30.1844 90.6739 30.7737 90.3012C31.363 89.9286 32.0347 89.7422 32.7887 89.7422C33.5427 89.7422 34.2144 89.9286 34.8037 90.3012C35.393 90.6739 35.8524 91.2156 36.1817 91.9262C36.5197 92.6282 36.6887 93.4689 36.6887 94.4482C36.6887 95.4276 36.5197 96.2726 36.1817 96.9832C35.8524 97.6852 35.393 98.2226 34.8037 98.5952C34.2144 98.9679 33.5427 99.1542 32.7887 99.1542ZM32.7887 97.3732C33.3434 97.3732 33.7767 97.1349 34.0887 96.6582C34.4094 96.1816 34.5697 95.4449 34.5697 94.4482C34.5697 93.4516 34.4094 92.7149 34.0887 92.2382C33.7767 91.7616 33.3434 91.5232 32.7887 91.5232C32.2427 91.5232 31.8094 91.7616 31.4887 92.2382C31.1767 92.7149 31.0207 93.4516 31.0207 94.4482C31.0207 95.4449 31.1767 96.1816 31.4887 96.6582C31.8094 97.1349 32.2427 97.3732 32.7887 97.3732Z" fill="white"/>
        <path d="M48.2051 97.2822V98.9982H41.3281V97.6332L44.8381 94.3182C45.2107 93.9629 45.4621 93.6596 45.5921 93.4082C45.7221 93.1482 45.7871 92.8926 45.7871 92.6412C45.7871 92.2772 45.6614 91.9999 45.4101 91.8092C45.1674 91.6099 44.8077 91.5102 44.3311 91.5102C43.9324 91.5102 43.5727 91.5882 43.2521 91.7442C42.9314 91.8916 42.6627 92.1169 42.4461 92.4202L40.9121 91.4322C41.2674 90.9036 41.7571 90.4919 42.3811 90.1972C43.0051 89.8939 43.7201 89.7422 44.5261 89.7422C45.2021 89.7422 45.7914 89.8549 46.2941 90.0802C46.8054 90.2969 47.1997 90.6089 47.4771 91.0162C47.7631 91.4149 47.9061 91.8872 47.9061 92.4332C47.9061 92.9272 47.8021 93.3909 47.5941 93.8242C47.3861 94.2576 46.9831 94.7516 46.3851 95.3062L44.2921 97.2822H48.2051Z" fill="white"/>
        <path d="M57.0952 93.6034C57.8926 93.7334 58.5036 94.0324 58.9282 94.5004C59.3529 94.9598 59.5652 95.5318 59.5652 96.2164C59.5652 96.7451 59.4266 97.2348 59.1492 97.6854C58.8719 98.1274 58.4472 98.4828 57.8752 98.7514C57.3119 99.0201 56.6186 99.1544 55.7952 99.1544C55.1539 99.1544 54.5212 99.0721 53.8972 98.9074C53.2819 98.7341 52.7576 98.4914 52.3242 98.1794L53.1432 96.5674C53.4899 96.8274 53.8886 97.0311 54.3392 97.1784C54.7986 97.3171 55.2666 97.3864 55.7432 97.3864C56.2719 97.3864 56.6879 97.2868 56.9912 97.0874C57.2946 96.8794 57.4462 96.5891 57.4462 96.2164C57.4462 95.4711 56.8786 95.0984 55.7432 95.0984H54.7812V93.7074L56.6532 91.5884H52.7792V89.8984H59.1492V91.2634L57.0952 93.6034Z" fill="white"/>
        <path d="M61.0654 122H62.6386V130.63H61.0654V129.97C60.7982 130.233 60.4844 130.446 60.1397 130.597C59.8236 130.726 59.4848 130.791 59.1433 130.788C58.7463 130.789 58.3537 130.707 57.9914 130.546C57.6292 130.385 57.3057 130.149 57.0426 129.854C56.4492 129.225 56.1308 128.389 56.157 127.528C56.1221 126.66 56.4292 125.811 57.0133 125.163C57.2737 124.87 57.5946 124.637 57.9541 124.478C58.3137 124.319 58.7035 124.24 59.097 124.244C59.4612 124.241 59.8221 124.312 60.1572 124.454C60.5008 124.605 60.8117 124.821 61.0731 125.089L61.0654 122ZM59.4102 125.685C59.184 125.681 58.9595 125.725 58.7517 125.814C58.5439 125.903 58.3577 126.035 58.2055 126.201C57.8736 126.556 57.6948 127.026 57.7073 127.51C57.6908 128.001 57.8698 128.478 58.2055 128.837C58.3579 129.005 58.5448 129.138 58.7534 129.228C58.9621 129.318 59.1878 129.363 59.4152 129.359C59.6455 129.365 59.8745 129.323 60.0868 129.234C60.2991 129.146 60.4898 129.013 60.6461 128.845C60.8138 128.664 60.9441 128.453 61.0296 128.223C61.1151 127.993 61.1541 127.748 61.1443 127.503C61.1534 127.262 61.1141 127.021 61.0285 126.796C60.943 126.57 60.813 126.363 60.6461 126.188C60.4856 126.023 60.2917 125.894 60.0771 125.808C59.8626 125.723 59.6323 125.684 59.4014 125.694" fill="white"/>
        <path d="M66.457 124.4H68.0324V125.04C68.3204 124.784 68.6467 124.574 68.9995 124.417C69.2813 124.302 69.5832 124.243 69.8881 124.243C70.1823 124.237 70.4745 124.292 70.7467 124.403C71.0189 124.514 71.2652 124.679 71.4706 124.888C71.666 125.109 71.815 125.367 71.909 125.646C72.003 125.925 72.0401 126.22 72.0181 126.514V130.628H70.4643V127.909C70.4845 127.413 70.4503 126.915 70.3623 126.425C70.3099 126.207 70.1863 126.011 70.0106 125.869C69.837 125.739 69.6242 125.67 69.4063 125.674C69.102 125.667 68.8075 125.781 68.5875 125.99C68.3444 126.228 68.179 126.534 68.1127 126.867C68.0533 127.285 68.0309 127.707 68.0456 128.129V130.628H66.457V124.4Z" fill="white"/>
        <path d="M77.6309 122H79.2041V130.63H77.6309V129.97C77.3645 130.233 77.0515 130.446 76.7075 130.597C76.3913 130.725 76.0526 130.79 75.7111 130.788C75.3142 130.789 74.9215 130.707 74.5593 130.546C74.197 130.385 73.8735 130.149 73.6105 129.854C73.0172 129.225 72.6989 128.389 72.7251 127.528C72.6916 126.66 72.9985 125.812 73.5814 125.163C73.842 124.87 74.1633 124.636 74.5232 124.478C74.8832 124.319 75.2734 124.239 75.6672 124.244C76.0306 124.241 76.3907 124.313 76.7251 124.454C77.069 124.605 77.38 124.821 77.6409 125.089L77.6309 122ZM75.9757 125.685C75.7483 125.68 75.5225 125.723 75.3134 125.813C75.1044 125.902 74.9169 126.034 74.7636 126.201C74.4369 126.56 74.2645 127.032 74.2833 127.516C74.2665 128.006 74.4456 128.483 74.7815 128.843C74.934 129.01 75.1208 129.144 75.3295 129.234C75.5382 129.323 75.7638 129.368 75.9913 129.364C76.2209 129.37 76.4492 129.327 76.6608 129.239C76.8724 129.15 77.0625 129.018 77.2183 128.85C77.5568 128.486 77.736 128.003 77.7165 127.508C77.7256 127.267 77.6862 127.027 77.6006 126.801C77.5151 126.575 77.3851 126.369 77.2183 126.193C77.0578 126.028 76.8639 125.899 76.6494 125.814C76.4349 125.728 76.2046 125.689 75.9737 125.699" fill="white"/>
        <path d="M86.5401 127.967H81.4874C81.5428 128.379 81.7519 128.756 82.0735 129.022C82.4175 129.292 82.8476 129.431 83.2856 129.413C83.5667 129.416 83.8457 129.364 84.1061 129.259C84.3664 129.154 84.6029 128.998 84.8013 128.8L86.1254 129.418C85.8262 129.857 85.4182 130.213 84.9405 130.451C84.4256 130.684 83.8639 130.798 83.2979 130.784C82.8553 130.801 82.4138 130.728 82.0006 130.57C81.5873 130.411 81.2111 130.171 80.8948 129.862C80.5899 129.559 80.3503 129.198 80.1907 128.8C80.031 128.401 79.9548 127.975 79.9664 127.547C79.9528 127.111 80.0278 126.677 80.1868 126.271C80.3459 125.865 80.5858 125.494 80.8922 125.182C81.1918 124.874 81.5528 124.631 81.9523 124.469C82.3517 124.307 82.7807 124.229 83.2121 124.24C83.6573 124.224 84.1011 124.299 84.5157 124.461C84.9303 124.624 85.3067 124.869 85.6213 125.182C85.9377 125.516 86.183 125.909 86.3426 126.339C86.5021 126.769 86.5726 127.227 86.5497 127.684L86.5401 127.967ZM84.9669 126.731C84.8642 126.388 84.6473 126.089 84.3515 125.884C84.04 125.666 83.6669 125.553 83.2862 125.56C82.8711 125.552 82.465 125.681 82.1313 125.926C81.8756 126.144 81.6774 126.42 81.5539 126.731H84.9669Z" fill="white"/>
        <path d="M86.4453 124.402H88.2721L89.5118 126.1L90.7427 124.402H92.5397L90.4116 127.333L92.8185 130.629H90.9927L89.5015 128.586L88.0157 130.63H86.2188L88.6008 127.353L86.4453 124.402Z" fill="white"/>
        <path d="M51.2682 122.215H52.9058L56.1664 130.632H54.4889L53.8269 128.902H50.367L49.6775 130.632H48L51.2682 122.215ZM52.097 124.438L50.9599 127.335H53.2273L52.097 124.438Z" fill="white"/>
        <path d="M63.748 122V123.443H65.3305L63.748 124.249V130.63H65.351V122H63.748Z" fill="white"/>
    </g>
</svg>
