<svg width="258" height="56" viewBox="0 0 258 56" fill="none" xmlns="http://www.w3.org/2000/svg">
    <path d="M257.5 16C257.5 15.1716 256.828 14.5 256 14.5L242.5 14.5C241.672 14.5 241 15.1716 241 16C241 16.8284 241.672 17.5 242.5 17.5L254.5 17.5L254.5 29.5C254.5 30.3284 255.172 31 256 31C256.828 31 257.5 30.3284 257.5 29.5L257.5 16ZM233.061 41.0607L257.061 17.0607L254.939 14.9393L230.939 38.9393L233.061 41.0607Z" fill="white"/>
    <path d="M35.04 10.4V44H30.624V17.744L19.632 36.032H19.056L8.064 17.792V44H3.6V10.4H8.64L19.344 28.16L30 10.4H35.04ZM51.921 28.64C54.321 28.64 56.305 29.36 57.873 30.8C59.473 32.208 60.273 34.048 60.273 36.32C60.273 38.592 59.473 40.448 57.873 41.888C56.305 43.296 54.321 44 51.921 44H41.793V20H45.969V28.64H51.921ZM63.393 20H67.569V44H63.393V20ZM51.921 40.112C53.105 40.112 54.097 39.776 54.897 39.104C55.729 38.4 56.145 37.472 56.145 36.32C56.145 35.168 55.729 34.24 54.897 33.536C54.097 32.832 53.105 32.48 51.921 32.48H45.969V40.112H51.921ZM101.933 31.664C104.397 32.688 105.629 34.544 105.629 37.232C105.629 39.216 104.957 40.848 103.613 42.128C102.301 43.376 100.413 44 97.9493 44H85.9492V20H96.9893C99.3893 20 101.245 20.608 102.557 21.824C103.869 23.008 104.525 24.576 104.525 26.528C104.525 28.832 103.661 30.544 101.933 31.664ZM96.7973 23.744H90.0293V30.032H96.7973C99.2293 30.032 100.445 28.96 100.445 26.816C100.445 24.768 99.2293 23.744 96.7973 23.744ZM97.7093 40.208C98.9253 40.208 99.8533 39.92 100.493 39.344C101.165 38.768 101.501 37.952 101.501 36.896C101.501 35.904 101.165 35.136 100.493 34.592C99.8533 34.016 98.9253 33.728 97.7093 33.728H90.0293V40.208H97.7093ZM139.993 20V24.032H131.833V44H127.657V24.032H119.449V20H139.993ZM162.971 40.976C160.507 43.408 157.515 44.624 153.995 44.624C150.475 44.624 147.483 43.408 145.019 40.976C142.587 38.544 141.371 35.552 141.371 32C141.371 28.448 142.587 25.456 145.019 23.024C147.483 20.592 150.475 19.376 153.995 19.376C157.515 19.376 160.507 20.592 162.971 23.024C165.435 25.456 166.667 28.448 166.667 32C166.667 35.552 165.435 38.544 162.971 40.976ZM153.995 40.544C156.395 40.544 158.411 39.728 160.043 38.096C161.675 36.464 162.491 34.432 162.491 32C162.491 29.568 161.675 27.536 160.043 25.904C158.411 24.272 156.395 23.456 153.995 23.456C151.627 23.456 149.627 24.272 147.995 25.904C146.363 27.536 145.547 29.568 145.547 32C145.547 34.432 146.363 36.464 147.995 38.096C149.627 39.728 151.627 40.544 153.995 40.544ZM192.374 20V44H188.198V23.984H175.766V44H171.59V20H192.374ZM201.659 33.92C202.075 36.064 203.051 37.728 204.587 38.912C206.155 40.096 208.075 40.688 210.347 40.688C213.515 40.688 215.819 39.52 217.259 37.184L220.811 39.2C218.475 42.816 214.955 44.624 210.251 44.624C206.443 44.624 203.339 43.44 200.939 41.072C198.571 38.672 197.387 35.648 197.387 32C197.387 28.384 198.555 25.376 200.891 22.976C203.227 20.576 206.251 19.376 209.963 19.376C213.483 19.376 216.347 20.624 218.555 23.12C220.795 25.584 221.915 28.56 221.915 32.048C221.915 32.656 221.867 33.28 221.771 33.92H201.659ZM209.963 23.312C207.723 23.312 205.867 23.952 204.395 25.232C202.923 26.48 202.011 28.16 201.659 30.272H217.691C217.339 28 216.443 26.272 215.003 25.088C213.563 23.904 211.883 23.312 209.963 23.312Z" fill="white"/>
</svg>